<svg width="200" height="200" xmlns="http://www.w3.org/2000/svg">
  <defs>
    <pattern id="grid" width="40" height="40" patternUnits="userSpaceOnUse">
      <path d="M 40 0 L 0 0 0 40" fill="none" stroke="rgba(212, 175, 55, 0.1)" stroke-width="0.5"/>
    </pattern>
    <filter id="noise" x="0%" y="0%" width="100%" height="100%">
      <feTurbulence type="fractalNoise" baseFrequency="0.65" numOctaves="3" stitchTiles="stitch" result="noise"/>
      <feColorMatrix type="matrix" values="0 0 0 0 0 0 0 0 0 0 0 0 0 0 0 0 0 0 0.05 0" in="noise" result="coloredNoise"/>
      <feBlend mode="overlay" in="SourceGraphic" in2="coloredNoise" result="blend"/>
    </filter>
    <radialGradient id="vignette" cx="50%" cy="50%" r="50%" fx="50%" fy="50%">
      <stop offset="0%" stop-color="rgba(106, 13, 173, 0)" />
      <stop offset="90%" stop-color="rgba(106, 13, 173, 0.05)" />
      <stop offset="100%" stop-color="rgba(106, 13, 173, 0.1)" />
    </radialGradient>
  </defs>
  <rect width="200" height="200" fill="url(#grid)" filter="url(#noise)"/>
  <rect width="200" height="200" fill="url(#vignette)" />
  <g fill="rgba(212, 175, 55, 0.03)">
    <circle cx="20" cy="20" r="1" />
    <circle cx="60" cy="20" r="1" />
    <circle cx="100" cy="20" r="1" />
    <circle cx="140" cy="20" r="1" />
    <circle cx="180" cy="20" r="1" />
    <circle cx="20" cy="60" r="1" />
    <circle cx="60" cy="60" r="1" />
    <circle cx="100" cy="60" r="1" />
    <circle cx="140" cy="60" r="1" />
    <circle cx="180" cy="60" r="1" />
    <circle cx="20" cy="100" r="1" />
    <circle cx="60" cy="100" r="1" />
    <circle cx="100" cy="100" r="1" />
    <circle cx="140" cy="100" r="1" />
    <circle cx="180" cy="100" r="1" />
    <circle cx="20" cy="140" r="1" />
    <circle cx="60" cy="140" r="1" />
    <circle cx="100" cy="140" r="1" />
    <circle cx="140" cy="140" r="1" />
    <circle cx="180" cy="140" r="1" />
    <circle cx="20" cy="180" r="1" />
    <circle cx="60" cy="180" r="1" />
    <circle cx="100" cy="180" r="1" />
    <circle cx="140" cy="180" r="1" />
    <circle cx="180" cy="180" r="1" />
  </g>
</svg>